<?xml version="1.0" encoding="UTF-8"?>
<svg id="Layer_2" data-name="Layer 2" xmlns="http://www.w3.org/2000/svg" viewBox="0 0 236.15 234.12">
  <defs>
    <style>
      .cls-1 {
        fill: #b7b7b7;
        stroke-width: 0px;
      }
    </style>
  </defs>
  <g id="Layer_1-2" data-name="Layer 1">
    <path class="cls-1" d="m145.76,0h-44.3v.07h0C58.84.07,24.29,34.62,24.29,77.24v45.66h.02v18.09c0,10.75,5.3,20.79-19.47,20.79-2.67,0-4.83,2.16-4.83,4.83v25.97c0,2.67,2.16,4.83,10.09,4.83h18.17c17.34-1.75,31.29-16.37,31.29-36.56v-.39h-.02v-32.73c0-2.67,2.16-4.83,4.83-4.83h32.26c2.67,0,4.83,2.16,4.83,4.83v64.6c0,2.67-2.16,4.83-4.83,4.83h-14.61c-2.67,0-4.83,2.16-4.83,4.83v27.28c0,2.67,2.16,4.83,4.83,4.83h19.45s0,0,0,0h45.92c60.95,0,88.77-49.37,88.77-111.5C236.15,54.43,210.88,0,145.76,0Zm-54.24,72.1c-6.1,0-11.05-4.95-11.05-11.05s4.95-11.05,11.05-11.05,11.05,4.95,11.05,11.05-4.95,11.05-11.05,11.05Zm41.87,28.55h-8.49c-1.45,0-2.63-1.5-2.63-3.36V29.31c0-1.85,1.18-3.36,2.63-3.36h8.08c16.76,0,23.26,17.36,23.26,39.12,0,19.83-7.16,35.58-22.84,35.58Z"/>
  </g>
</svg>