<svg xmlns="http://www.w3.org/2000/svg" width="12.2" height="13.533" viewBox="0 0 12.2 13.533">
  <g id="pngwing.com" transform="translate(-0.538 981.124)">
    <path id="패스_7" data-name="패스 7" d="M6.272-981.009a4.282,4.282,0,0,0-3.633,2.8,5.022,5.022,0,0,0-.216.864,3.32,3.32,0,0,0-.032.626,3.45,3.45,0,0,0,.03.6,4.311,4.311,0,0,0,.9,2.081,4.462,4.462,0,0,0,.968.889c.085.057.173.113.2.125a.193.193,0,0,1,.05.034.763.763,0,0,1-.185.09,6.117,6.117,0,0,0-2.982,2.637,6.123,6.123,0,0,0-.693,1.889.786.786,0,0,0-.034.3.465.465,0,0,0,.142.268.382.382,0,0,0,.31.117.32.32,0,0,0,.2-.041.526.526,0,0,0,.138-.106.483.483,0,0,0,.115-.248,4.607,4.607,0,0,1,.108-.51,5.174,5.174,0,0,1,1.336-2.314,5.085,5.085,0,0,1,3.237-1.512,6.659,6.659,0,0,1,1.079.027,5.118,5.118,0,0,1,2.6,1.137,6.8,6.8,0,0,1,.717.723,5.251,5.251,0,0,1,1.091,2.374.515.515,0,0,0,.163.354.377.377,0,0,0,.3.117.383.383,0,0,0,.31-.124.451.451,0,0,0,.123-.476c-.015-.067-.045-.195-.063-.284a6.148,6.148,0,0,0-1.272-2.593,8.468,8.468,0,0,0-.725-.736,6.142,6.142,0,0,0-1.629-1,1.1,1.1,0,0,1-.193-.09s.058-.041.124-.082a4.311,4.311,0,0,0,1.933-2.732,3.346,3.346,0,0,0,.089-.93,3.454,3.454,0,0,0-.1-.98,4.286,4.286,0,0,0-2.057-2.756A4.269,4.269,0,0,0,6.272-981.009Zm.908.95a3.154,3.154,0,0,1,.921.3,3.324,3.324,0,0,1,1.4,1.29,3.393,3.393,0,0,1-.084,3.607,3.353,3.353,0,0,1-2.308,1.47,4.4,4.4,0,0,1-.945,0,3.335,3.335,0,0,1-1.93-1,3.363,3.363,0,0,1-.907-1.85,3.969,3.969,0,0,1,0-.98,3.364,3.364,0,0,1,1.035-1.98,3.377,3.377,0,0,1,1.809-.87l.148-.02c.023,0,.189,0,.371,0A2.6,2.6,0,0,1,7.181-980.059Z" transform="translate(0 0)" fill="#404040"/>
    <path id="패스_7_-_윤곽선" data-name="패스 7 - 윤곽선" d="M6.625-981.124a4.387,4.387,0,0,1,2.147.565,4.369,4.369,0,0,1,2.1,2.82,3.53,3.53,0,0,1,.105,1,3.454,3.454,0,0,1-.091.951,4.388,4.388,0,0,1-1.951,2.779l.027.011a6.215,6.215,0,0,1,1.656,1.014,8.588,8.588,0,0,1,.738.749,6.276,6.276,0,0,1,1.292,2.636c.013.062.031.141.046.206l.018.078a.55.55,0,0,1-.152.571.482.482,0,0,1-.379.151.477.477,0,0,1-.372-.144.611.611,0,0,1-.193-.408,5.138,5.138,0,0,0-1.07-2.33,6.757,6.757,0,0,0-.7-.708A4.989,4.989,0,0,0,7.294-972.3a6.245,6.245,0,0,0-.724-.037c-.134,0-.249,0-.333.01a4.954,4.954,0,0,0-3.174,1.483,5.052,5.052,0,0,0-1.311,2.27,4.942,4.942,0,0,0-.1.486.574.574,0,0,1-.141.314.617.617,0,0,1-.168.129.413.413,0,0,1-.244.051.478.478,0,0,1-.378-.144.569.569,0,0,1-.173-.326.864.864,0,0,1,.035-.337,6.2,6.2,0,0,1,.7-1.919A6.231,6.231,0,0,1,4.314-973l.02-.008-.1-.065a4.551,4.551,0,0,1-.99-.91,4.417,4.417,0,0,1-.921-2.128,3.529,3.529,0,0,1-.031-.614,3.4,3.4,0,0,1,.034-.641,5.094,5.094,0,0,1,.221-.884,4.393,4.393,0,0,1,3.718-2.861C6.382-981.119,6.5-981.124,6.625-981.124Zm5.56,13.333a.285.285,0,0,0,.242-.1.353.353,0,0,0,.094-.38l-.018-.079c-.015-.066-.033-.146-.046-.209a6.075,6.075,0,0,0-1.251-2.551,8.472,8.472,0,0,0-.712-.723,6.013,6.013,0,0,0-1.6-.982c-.221-.091-.233-.1-.249-.147L8.627-973l.025-.049c.011-.017.018-.027.156-.112a4.187,4.187,0,0,0,1.888-2.668,3.266,3.266,0,0,0,.087-.908,3.371,3.371,0,0,0-.1-.957,4.171,4.171,0,0,0-2.01-2.693,4.184,4.184,0,0,0-2.048-.539c-.115,0-.231.005-.344.015a4.193,4.193,0,0,0-3.547,2.731,4.948,4.948,0,0,0-.211.845,3.221,3.221,0,0,0-.031.611,3.352,3.352,0,0,0,.029.583A4.223,4.223,0,0,0,3.4-974.1a4.341,4.341,0,0,0,.945.868c.093.062.171.111.187.119.07.038.084.061.091.072l.024.04-.015.045c-.014.042-.028.062-.242.15a6.03,6.03,0,0,0-2.933,2.594,6,6,0,0,0-.681,1.86.723.723,0,0,0-.033.266.368.368,0,0,0,.111.212.286.286,0,0,0,.242.09c.1,0,.1,0,.153-.029a.437.437,0,0,0,.11-.084.413.413,0,0,0,.09-.182,4.4,4.4,0,0,1,.111-.536,5.25,5.25,0,0,1,1.362-2.359,5.218,5.218,0,0,1,3.3-1.542c.09-.007.21-.011.349-.011a6.349,6.349,0,0,1,.751.039,5.183,5.183,0,0,1,2.652,1.158,6.9,6.9,0,0,1,.731.738,5.333,5.333,0,0,1,1.111,2.418c.037.193.058.229.134.3A.279.279,0,0,0,12.185-967.791Zm-5.692-12.4.2,0a2.688,2.688,0,0,1,.507.034,3.25,3.25,0,0,1,.947.308,3.427,3.427,0,0,1,1.441,1.329,3.5,3.5,0,0,1-.086,3.714,3.45,3.45,0,0,1-2.376,1.514,3.576,3.576,0,0,1-.488.027,3.552,3.552,0,0,1-.487-.027,3.431,3.431,0,0,1-1.987-1.027,3.452,3.452,0,0,1-.934-1.9,4.031,4.031,0,0,1,0-1.01,3.47,3.47,0,0,1,1.066-2.038,3.48,3.48,0,0,1,1.864-.9l.059-.008.091-.012C6.327-980.192,6.389-980.193,6.493-980.193Zm.143,6.727a3.432,3.432,0,0,0,.458-.024,3.253,3.253,0,0,0,2.24-1.427,3.294,3.294,0,0,0,.081-3.5,3.229,3.229,0,0,0-1.358-1.252,3.067,3.067,0,0,0-.894-.291,2.542,2.542,0,0,0-.473-.031h-.2c-.1,0-.152,0-.162,0l-.086.012-.06.008a3.273,3.273,0,0,0-1.754.843A3.274,3.274,0,0,0,3.426-977.2a3.859,3.859,0,0,0,0,.95,3.256,3.256,0,0,0,.88,1.8,3.235,3.235,0,0,0,1.874.968A3.414,3.414,0,0,0,6.636-973.466Z" transform="translate(0 0)" fill="#808080"/>
  </g>
</svg>
