<svg xmlns="http://www.w3.org/2000/svg" width="12.2" height="14.6" viewBox="0 0 12.2 14.6">
  <g id="pngwing.com-_2_" transform="translate(-1.028 979.743)">
    <path id="패스_10" data-name="패스 10" d="M6.728-979.634a3.549,3.549,0,0,0-3.182,2.727,6.229,6.229,0,0,0-.113,1.716v.95l-.388.007a1.679,1.679,0,0,0-.7.1,1.866,1.866,0,0,0-1.119,1.11c-.1.279-.089.022-.093,3.214-.006,3.17-.009,3.034.08,3.309a1.84,1.84,0,0,0,1.173,1.167c.29.094-.122.087,4.646.093,2.906,0,4.373,0,4.463-.01a1.858,1.858,0,0,0,1.362-.844,1.9,1.9,0,0,0,.226-.522l.041-.143,0-2.911c0-3.206.009-3.053-.089-3.334a1.842,1.842,0,0,0-1.43-1.208,3.1,3.1,0,0,0-.455-.022h-.33v-.945a6.187,6.187,0,0,0-.115-1.73,3.549,3.549,0,0,0-.992-1.727,3.589,3.589,0,0,0-2.007-.964A5.936,5.936,0,0,0,6.728-979.634Zm.84.919a2.8,2.8,0,0,1,1.188.46,3.133,3.133,0,0,1,.6.588,2.822,2.822,0,0,1,.528,1.458c.011.122.015.541.012,1.081l0,.882H4.36v-.992a8.706,8.706,0,0,1,.027-1.166,2.642,2.642,0,0,1,2.431-2.333A4.149,4.149,0,0,1,7.567-978.715Zm4.023,5.42a.911.911,0,0,1,.588.638,26.721,26.721,0,0,1,.03,2.908c0,3.1.006,2.9-.1,3.111a1,1,0,0,1-.416.4c-.225.1.134.1-4.614.094-3.545,0-4.3-.009-4.347-.025a.965.965,0,0,1-.663-.686c-.033-.153-.033-5.623,0-5.775a.923.923,0,0,1,.312-.5,1.165,1.165,0,0,1,.377-.19c.065-.015.93-.018,4.4-.016l4.32,0Z" transform="translate(0 0)" fill="#404040"/>
    <path id="패스_10_-_윤곽선" data-name="패스 10 - 윤곽선" d="M7.007-979.743a5.975,5.975,0,0,1,.715.038,3.7,3.7,0,0,1,2.062.992,3.635,3.635,0,0,1,1.02,1.775,6.274,6.274,0,0,1,.118,1.755v.845h.23a3.164,3.164,0,0,1,.472.023,1.953,1.953,0,0,1,1.507,1.275l.011.032c.088.245.088.245.084,2.912l-.005,3.347-.045.156a1.991,1.991,0,0,1-.238.549,1.966,1.966,0,0,1-1.434.889c-.049.006-.39.012-2.613.012H6.124c-3.516,0-3.516,0-3.718-.078l-.053-.019a1.952,1.952,0,0,1-1.237-1.232l-.01-.029c-.081-.246-.081-.246-.076-2.987v-.944c0-2.367,0-2.367.08-2.577l.018-.05a1.96,1.96,0,0,1,1.181-1.172,1.76,1.76,0,0,1,.733-.1l.289-.005v-.852a6.329,6.329,0,0,1,.116-1.739,3.639,3.639,0,0,1,3.269-2.8C6.8-979.741,6.923-979.743,7.007-979.743Zm6.014,12.966.005-3.319c0-2.608,0-2.634-.072-2.845l-.012-.034a1.751,1.751,0,0,0-1.352-1.143,3.067,3.067,0,0,0-.439-.021h-.43v-1.045a6.079,6.079,0,0,0-.112-1.706,3.44,3.44,0,0,0-.965-1.68,3.506,3.506,0,0,0-1.952-.937,5.738,5.738,0,0,0-.686-.036c-.115,0-.208,0-.27.009a3.443,3.443,0,0,0-3.094,2.651,6.132,6.132,0,0,0-.11,1.692v1.048l-.486.009a1.588,1.588,0,0,0-.672.092,1.778,1.778,0,0,0-1.057,1.048l-.019.054a10.49,10.49,0,0,0-.068,2.508v.944a13.1,13.1,0,0,0,.066,2.924l.01.03a1.749,1.749,0,0,0,1.109,1.1l.06.021c.167.061.2.062,3.65.066H8.891c1.65,0,2.521,0,2.59-.011a1.767,1.767,0,0,0,1.289-.8,1.819,1.819,0,0,0,.214-.494Zm-5.98-12.068a4.2,4.2,0,0,1,.541.031,2.884,2.884,0,0,1,1.23.477,3.252,3.252,0,0,1,.628.612,2.929,2.929,0,0,1,.546,1.508c.011.124.015.541.012,1.089l-.005.982H4.26v-1.092a8.581,8.581,0,0,1,.028-1.181,2.748,2.748,0,0,1,2.52-2.417C6.866-978.842,6.946-978.845,7.041-978.845Zm2.753,4.5,0-.783c0-.534,0-.955-.012-1.071a2.735,2.735,0,0,0-.509-1.409,3.053,3.053,0,0,0-.579-.564,2.686,2.686,0,0,0-1.146-.444,4.055,4.055,0,0,0-.511-.029c-.088,0-.162,0-.213.008a2.555,2.555,0,0,0-2.342,2.249,8.807,8.807,0,0,0-.026,1.151v.892Zm-4.018.908H7.157l4.337,0,.129.045a1.013,1.013,0,0,1,.652.707,23.731,23.731,0,0,1,.033,2.933v.475c0,2.47,0,2.47-.094,2.65l-.016.031a1.1,1.1,0,0,1-.463.449l-.036.018c-.148.078-.167.088-2.235.088H7.079c-4.132-.005-4.318-.01-4.378-.03a1.066,1.066,0,0,1-.73-.76c-.036-.164-.036-5.655,0-5.817a1.016,1.016,0,0,1,.347-.56,1.268,1.268,0,0,1,.417-.209C2.795-973.432,3.086-973.437,5.777-973.437Zm5.684.2-4.3,0H5.777c-1.883,0-2.919,0-3,.015a1.069,1.069,0,0,0-.334.17.824.824,0,0,0-.277.448c-.03.211-.03,5.521,0,5.735a.864.864,0,0,0,.591.608c.107.014,1.187.018,4.322.022H9.465a8.1,8.1,0,0,0,2.142-.065l.044-.022a.9.9,0,0,0,.369-.357l.018-.034c.07-.133.071-.181.071-2.557v-.475c0-2.626,0-2.783-.027-2.882a.817.817,0,0,0-.525-.57Z" transform="translate(0 0)" fill="#808080"/>
    <path id="패스_11" data-name="패스 11" d="M338.969-428.508a.946.946,0,0,0-.695.512.843.843,0,0,0-.088.453.841.841,0,0,0,.129.439,1.009,1.009,0,0,0,.275.289l.046.024,0,.818,0,.816.043.087a.463.463,0,0,0,.842,0l.043-.087,0-.813.006-.813.076-.053a1,1,0,0,0,.157-.149.929.929,0,0,0-.125-1.327,1.1,1.1,0,0,0-.357-.179A1.154,1.154,0,0,0,338.969-428.508Z" transform="translate(-331.981 -543.116)" fill="#404040"/>
    <path id="패스_11_-_윤곽선" data-name="패스 11 - 윤곽선" d="M339.085-428.616a1.28,1.28,0,0,1,.272.027,1.193,1.193,0,0,1,.4.2,1.044,1.044,0,0,1,.379.711,1.029,1.029,0,0,1-.241.757,1.089,1.089,0,0,1-.176.167l-.034.024-.01,1.6-.053.107a.569.569,0,0,1-.511.326.569.569,0,0,1-.511-.326l-.053-.107-.009-1.6a1.11,1.11,0,0,1-.307-.322.935.935,0,0,1-.143-.486.939.939,0,0,1,.1-.5,1.049,1.049,0,0,1,.767-.566A.82.82,0,0,1,339.085-428.616Zm.387,3.436.011-1.655.118-.083a.916.916,0,0,0,.137-.131.83.83,0,0,0,.2-.611.845.845,0,0,0-.307-.575,1,1,0,0,0-.317-.159,1.086,1.086,0,0,0-.225-.022.613.613,0,0,0-.1.006.851.851,0,0,0-.623.458.746.746,0,0,0-.078.4.743.743,0,0,0,.114.392.948.948,0,0,0,.235.252l.1.054.009,1.671.032.066a.366.366,0,0,0,.331.214.366.366,0,0,0,.331-.214Z" transform="translate(-331.981 -543.116)" fill="#404040"/>
  </g>
</svg>
