<svg xmlns="http://www.w3.org/2000/svg" xmlns:xlink="http://www.w3.org/1999/xlink" width="6" height="12" viewBox="0 0 6 12">
  <defs>
    <clipPath id="clip-path">
      <rect id="사각형_80" data-name="사각형 80" width="6" height="12" fill="#6f6f6f"/>
    </clipPath>
  </defs>
  <g id="그룹_65" data-name="그룹 65" transform="translate(6 12) rotate(180)">
    <g id="그룹_63" data-name="그룹 63" clip-path="url(#clip-path)">
      <path id="패스_37" data-name="패스 37" d="M5.516,12a.454.454,0,0,1-.33-.147L.262,6.679a1.012,1.012,0,0,1,0-1.358L5.186.146A.446.446,0,0,1,5.87.173a.6.6,0,0,1-.024.771L1.035,6l4.811,5.056a.6.6,0,0,1,.024.771A.458.458,0,0,1,5.516,12" transform="translate(0 0)" fill="#a9a9a9"/>
    </g>
  </g>
</svg>
