<svg xmlns="http://www.w3.org/2000/svg" width="12" height="12.004" viewBox="0 0 12 12.004">
  <g id="premium-icon-magnifier-2319177" transform="translate(-64.4 447.731)">
    <path id="패스_20" data-name="패스 20" d="M68.909-447.721a5.05,5.05,0,0,0-4.434,4.059,5.788,5.788,0,0,0,0,1.859,5.033,5.033,0,0,0,3.981,3.987,5.634,5.634,0,0,0,1.862,0,4.979,4.979,0,0,0,2.015-.876l.232-.169,1.552,1.549c1.364,1.364,1.568,1.552,1.671,1.571a.482.482,0,0,0,.463-.138.486.486,0,0,0,.138-.466c-.019-.1-.207-.3-1.568-1.668l-1.549-1.552.175-.247a4.957,4.957,0,0,0,.867-2,5.75,5.75,0,0,0,0-1.853,5.031,5.031,0,0,0-3.965-3.984A7.478,7.478,0,0,0,68.909-447.721Zm1.33,1.073a3.857,3.857,0,0,1,1.975,1.1,3.924,3.924,0,0,1,1.111,2.037,5.045,5.045,0,0,1,0,1.565,3.924,3.924,0,0,1-1.111,2.037,3.947,3.947,0,0,1-2.037,1.111,4.99,4.99,0,0,1-1.615-.013,3.886,3.886,0,0,1-1.987-1.1,3.925,3.925,0,0,1-1.111-2.037,5.045,5.045,0,0,1,0-1.565,3.926,3.926,0,0,1,1.111-2.037,3.856,3.856,0,0,1,1.972-1.092,2.967,2.967,0,0,1,.973-.075A3.712,3.712,0,0,1,70.239-446.647Z" transform="translate(0 0)" fill="#b0b0b0"/>
  </g>
</svg>
