<?xml version="1.0" encoding="UTF-8"?><svg id="Layer_2" xmlns="http://www.w3.org/2000/svg" width="12.68" height="12.68" viewBox="0 0 12.68 12.68"><defs><style>.cls-1{fill:#a3a3a3;stroke-width:0px;}</style></defs><g id="Layer_1-2"><path class="cls-1" d="m12.54,5c-.2-.92-.58-1.75-1.18-2.54-.22-.29-.79-.86-1.08-1.09C9.35.63,8.2.15,7.05.03c-.38-.04-1.15-.04-1.53.01h0c-1.59.21-3.04,1.02-4.1,2.27-.44.53-.88,1.32-1.11,2.03-.22.69-.32,1.26-.32,1.99s.09,1.31.32,1.99c.45,1.38,1.35,2.54,2.61,3.37.54.35,1.35.69,2.01.84.44.1.98.15,1.48.15.22,0,.43-.01.62-.03,1.14-.13,2.24-.57,3.17-1.27.54-.41,1.2-1.15,1.58-1.77.82-1.36,1.09-3.03.76-4.6Zm-9.27,3.61c-.43.05-1.26.16-1.56.19-.02-.03-.04-.07-.07-.13-.25-.5-.43-1.07-.5-1.6,0-.05-.01-.11-.02-.16h1.84c.02.42.16,1.21.3,1.7Zm8.27-1.7c0,.06-.01.12-.02.18-.04.31-.15.75-.26,1.06-.1.27-.23.53-.3.65-.14-.01-.36-.04-.61-.07-.32-.04-.64-.08-.83-.1l.02-.06c.13-.45.23-1.02.28-1.51v-.15h1.72Zm-8.82,2.89l.8-.1s.09,0,.14-.01l.06.12c.22.47.56,1.02.91,1.49-.84-.29-1.63-.81-2.2-1.46.09-.01.19-.02.29-.04Zm-1.59-4.02c0-.06.02-.12.02-.18.07-.52.24-1.08.49-1.59.03-.06.05-.1.07-.13.17.02.5.06.87.1h.12c.22.04.42.07.56.09-.15.5-.28,1.28-.3,1.7h-1.84ZM6.6,1.3c.21.1.94,1,1.35,1.77h-.15c-.65.05-2.25.04-2.93,0,.09-.17.23-.4.35-.6.37-.56.87-1.11,1-1.18.13-.07.24-.07.39,0Zm-1.17,7.15c-.44.01-.85.04-1.02.05v-.04c-.16-.48-.28-1.07-.32-1.56h4.64c-.06.59-.14.99-.28,1.49l-.03.12h-.01c-.61-.05-1.34-.07-2.02-.07-.33,0-.65,0-.94.02Zm3.3-2.69h-4.63c.04-.5.15-1.06.31-1.57v-.04c.19.01.61.03,1.03.05.89.03,2.05.01,2.96-.05h.03s.03.12.03.12c.15.5.22.9.28,1.49Zm1.12,0v-.15c-.06-.49-.16-1.06-.29-1.51,0-.02-.01-.04-.02-.06.1-.01.23-.03.36-.04h.09c.27-.04.58-.08.71-.1h.1c.07-.02.13-.03.18-.03,0,.02.02.04.03.07l.03.07c.25.5.43,1.07.49,1.59,0,.06.02.12.02.18h-1.71Zm-.7-2.79l-.05-.1c-.2-.44-.53-.98-.87-1.43.64.25,1.27.65,1.79,1.15.07.07.16.16.24.25-.31.04-.74.09-1.11.13Zm-5.34-.25l-.13.26h-.05c-.19-.02-.78-.09-1.19-.15.05-.05.1-.11.15-.16.5-.52,1.2-.98,1.91-1.25.04-.02.09-.03.15-.05-.31.41-.63.92-.84,1.35Zm1.42,7.46c-.1-.15-.25-.41-.36-.6.46-.02,1.41-.05,1.72-.03.17,0,.55.01.84.02.18,0,.38.01.53.02-.3.58-.72,1.16-1.15,1.6-.17.17-.19.18-.27.21-.17.05-.25.05-.55-.26-.28-.29-.51-.58-.76-.96Zm3.86-.37s.04-.09.06-.13c.14.02.36.04.61.07h.09c.15.03.29.05.41.06-.55.62-1.25,1.1-2.03,1.4.33-.45.66-.98.86-1.41Z"/></g></svg>